<?xml version="1.0" encoding="UTF-8" standalone="no"?>
<!-- Created with Inkscape (http://www.inkscape.org/) -->

<svg
   xmlns:dc="http://purl.org/dc/elements/1.1/"
   xmlns:cc="http://creativecommons.org/ns#"
   xmlns:rdf="http://www.w3.org/1999/02/22-rdf-syntax-ns#"
   xmlns:svg="http://www.w3.org/2000/svg"
   xmlns="http://www.w3.org/2000/svg"
   xmlns:xlink="http://www.w3.org/1999/xlink"
   xmlns:sodipodi="http://sodipodi.sourceforge.net/DTD/sodipodi-0.dtd"
   xmlns:inkscape="http://www.inkscape.org/namespaces/inkscape"
   width="545.86066"
   height="517.2348"
   id="svg2"
   version="1.1"
   inkscape:version="0.48.4 r9939"
   sodipodi:docname="flat.svg">
  <defs
     id="defs4">
    <linearGradient
       id="linearGradient3934">
      <stop
         id="stop3936"
         offset="0"
         style="stop-color:#f6f600;stop-opacity:1;" />
      <stop
         style="stop-color:#b8f600;stop-opacity:0.74901961;"
         offset="0.5"
         id="stop3938" />
      <stop
         style="stop-color:#7bf600;stop-opacity:0.49803922;"
         offset="0.5"
         id="stop3940" />
      <stop
         id="stop3942"
         offset="1"
         style="stop-color:#f6f600;stop-opacity:0;" />
    </linearGradient>
    <linearGradient
       id="linearGradient3824">
      <stop
         style="stop-color:#00f600;stop-opacity:0.24705882;"
         offset="0"
         id="stop3944" />
      <stop
         id="stop3958"
         offset="0.015625"
         style="stop-color:#03f600;stop-opacity:0.24313725;" />
      <stop
         id="stop3956"
         offset="0.03125"
         style="stop-color:#07f600;stop-opacity:0.23921569;" />
      <stop
         id="stop3954"
         offset="0.0625"
         style="stop-color:#0ff600;stop-opacity:0.23137255;" />
      <stop
         id="stop3952"
         offset="0.125"
         style="stop-color:#1ef600;stop-opacity:0.21568627;" />
      <stop
         id="stop3950"
         offset="0.25"
         style="stop-color:#3df600;stop-opacity:0.18431373;" />
      <stop
         id="stop3948"
         offset="0.5"
         style="stop-color:#7bf600;stop-opacity:0.12156863;" />
      <stop
         style="stop-color:#f6f600;stop-opacity:0;"
         offset="1"
         id="stop3828" />
    </linearGradient>
    <linearGradient
       id="linearGradient3810">
      <stop
         id="stop3822"
         offset="0"
         style="stop-color:#7bf600;stop-opacity:0.74901961;" />
      <stop
         id="stop3820"
         offset="0.5"
         style="stop-color:#00f600;stop-opacity:0.49803922;" />
      <stop
         style="stop-color:#00f600;stop-opacity:0;"
         offset="1"
         id="stop3814" />
    </linearGradient>
    <radialGradient
       inkscape:collect="always"
       xlink:href="#linearGradient3824-9"
       id="radialGradient3830-8"
       cx="228.09346"
       cy="543.71533"
       fx="228.09346"
       fy="543.71533"
       r="116.77861"
       gradientTransform="matrix(3.9756621,0.19399323,-0.08599155,1.7622939,-631.9742,-475.05493)"
       gradientUnits="userSpaceOnUse"
       spreadMethod="reflect" />
    <linearGradient
       id="linearGradient3824-9">
      <stop
         style="stop-color:#f6f600;stop-opacity:1;"
         offset="0"
         id="stop3826-1" />
      <stop
         id="stop3834-9"
         offset="0.5"
         style="stop-color:#b8f600;stop-opacity:0.74901961;" />
      <stop
         id="stop3832-0"
         offset="0.5"
         style="stop-color:#7bf600;stop-opacity:0.49803922;" />
      <stop
         style="stop-color:#f6f600;stop-opacity:0;"
         offset="1"
         id="stop3828-1" />
    </linearGradient>
    <radialGradient
       inkscape:collect="always"
       xlink:href="#linearGradient3824-7"
       id="radialGradient3830-7"
       cx="228.09346"
       cy="543.71533"
       fx="228.09346"
       fy="543.71533"
       r="116.77861"
       gradientTransform="matrix(3.9756621,0.19399323,-0.08599155,1.7622939,-631.9742,-475.05493)"
       gradientUnits="userSpaceOnUse"
       spreadMethod="reflect" />
    <linearGradient
       id="linearGradient3824-7">
      <stop
         style="stop-color:#f6f600;stop-opacity:1;"
         offset="0"
         id="stop3826-6" />
      <stop
         id="stop3834-7"
         offset="0.5"
         style="stop-color:#b8f600;stop-opacity:0.74901961;" />
      <stop
         id="stop3832-4"
         offset="0.5"
         style="stop-color:#7bf600;stop-opacity:0.49803922;" />
      <stop
         style="stop-color:#f6f600;stop-opacity:0;"
         offset="1"
         id="stop3828-4" />
    </linearGradient>
    <radialGradient
       inkscape:collect="always"
       xlink:href="#linearGradient3824-5"
       id="radialGradient3830-70"
       cx="228.09346"
       cy="543.71533"
       fx="228.09346"
       fy="543.71533"
       r="116.77861"
       gradientTransform="matrix(3.9756621,0.19399323,-0.08599155,1.7622939,-631.9742,-475.05493)"
       gradientUnits="userSpaceOnUse"
       spreadMethod="reflect" />
    <linearGradient
       id="linearGradient3824-5">
      <stop
         style="stop-color:#f6f600;stop-opacity:1;"
         offset="0"
         id="stop3826-2" />
      <stop
         id="stop3834-78"
         offset="0.5"
         style="stop-color:#b8f600;stop-opacity:0.74901961;" />
      <stop
         id="stop3832-9"
         offset="0.5"
         style="stop-color:#7bf600;stop-opacity:0.49803922;" />
      <stop
         style="stop-color:#f6f600;stop-opacity:0;"
         offset="1"
         id="stop3828-8" />
    </linearGradient>
  </defs>
  <sodipodi:namedview
     id="base"
     pagecolor="#007aff"
     bordercolor="#666666"
     borderopacity="1.0"
     inkscape:pageopacity="0"
     inkscape:pageshadow="2"
     inkscape:zoom="0.70710678"
     inkscape:cx="239.4586"
     inkscape:cy="198.11673"
     inkscape:document-units="px"
     inkscape:current-layer="layer2"
     showgrid="false"
     showguides="true"
     inkscape:guide-bbox="true"
     inkscape:window-width="1536"
     inkscape:window-height="803"
     inkscape:window-x="-8"
     inkscape:window-y="-8"
     inkscape:window-maximized="1"
     fit-margin-top="0"
     fit-margin-left="0"
     fit-margin-right="0"
     fit-margin-bottom="0" />
  <metadata
     id="metadata7">
    <rdf:RDF>
      <cc:Work
         rdf:about="">
        <dc:format>image/svg+xml</dc:format>
        <dc:type
           rdf:resource="http://purl.org/dc/dcmitype/StillImage" />
        <dc:title />
      </cc:Work>
    </rdf:RDF>
  </metadata>
  <g
     inkscape:label="Layer 1"
     inkscape:groupmode="layer"
     id="layer1"
     style="display:none"
     transform="translate(-134.74657,-184.3582)">
    <path
       style="fill:#42ff23;fill-opacity:1;fill-rule:nonzero;stroke:#005400;stroke-width:6;stroke-linecap:round;stroke-miterlimit:4;stroke-opacity:1;stroke-dasharray:none;display:inline"
       d="m 353.875,170.6875 c -118.67817,2.01642 -125.25527,146.44522 -90.9375,206.21875 17.17552,29.91562 27.00461,45.09375 50.28125,58.4375 15.59272,8.93878 45.00806,8.84324 52.61677,11.85034 6.63456,2.6221 13.88721,7.96413 22.22698,11.36841 -6.44851,4.03277 -11.33307,6.37883 -17.58222,7.83218 -6.78609,1.57823 -14.7745,3.19594 -20.88653,0.79282 -7.79571,-3.0651 -13.68172,-9.68324 -21.8125,-12 -20.39305,-5.81069 -67.711,1.24874 -96.125,-11.8125 -20.84085,-9.58004 -37.05476,-29.34262 -49.625,-46.5625 -6.2851,-8.60998 -19.49308,-41.16466 -44.25,-48.84375 -6.99526,0.29441 -10.36527,2.69964 -13.75,5.6875 -59.731437,102.64049 60.48677,182.98618 129.40625,184.53125 34.48685,0.77313 52.54066,0.20732 76,-12.8125 15.71512,-8.72184 31.44763,-34.4825 37.1875,-40.3125 6.9678,-7.07719 15.20652,-10.74864 24.03125,-13 5.45046,-1.39052 11.98203,-2.83737 16.875,-0.0625 6.39457,3.62646 8.41068,10.88535 11.25,18.96875 2.12105,6.0384 3.51844,14.88841 8.8125,13.6875 9.10037,-2.06435 11.95288,-18.36289 3.53125,-27.78125 -4.57341,-5.1147 -15.19817,-13.51319 -11.03125,-17.75 6.78696,-5.3212 12.38923,-8.86391 19.57732,-10.88315 5.405,-1.51834 10.95055,-3.60786 16.82893,-0.67935 7.49772,3.7353 12.79054,10.82465 20.6875,13.84375 19.80659,7.57229 67.55617,4.69081 94.71875,20.1875 19.92293,11.36636 34.35923,32.46533 45.375,50.71875 5.50784,9.12679 15.79094,42.71601 39.78125,52.53125 7.00704,0.31921 10.61003,-1.78133 14.25,-4.46875 C 739.75454,483.36287 627.01394,392.81717 558.5,385.25 c -34.28707,-3.78686 -52.33543,-4.82407 -76.84375,6.09375 -16.4178,7.31372 -34.9886,30.9174 -40.5625,36.90625 -7.90724,8.4959 -8.31276,9.11043 -25.34375,13.125 -2.2767,0.53667 -4.17436,1.63089 -5.8125,2.78125 -1.51691,-3.23338 -1.82695,-8.65551 -0.41938,-12.62335 2.05264,-5.78629 6.77731,-10.02722 12.07563,-13.9079 6.75783,-4.94968 15.4767,-6.39834 21.78125,-12.03125 15.81254,-14.12811 35.17822,-57.87557 61.40625,-74.90625 19.23747,-12.49149 44.5711,-15.64476 65.84375,-17.0625 10.63635,-0.70884 45.21305,5.53599 64.9375,-11.28125 3.50838,-6.09991 3.2868,-10.23525 2.5625,-14.71875 C 583.30175,182.32742 451.14459,240.99445 413,298.40625 c -19.08966,28.732 -28.27466,44.27646 -29.8125,71.0625 -1.03019,17.94364 12.32893,45.03249 14.1875,53 3.06362,13.13386 -0.47105,20.32369 -3.10198,24.69899 -5.98327,0.25775 -10.0779,-5.07803 -12.40951,-8.43915 -3.10664,-4.47835 -7.32147,-9.75465 -8.42601,-16.22859 -1.40875,-8.2573 1.1913,-16.71796 -1.03125,-24.875 -5.57451,-20.45887 -36.0761,-57.33248 -39.59375,-88.40625 -2.58011,-22.79168 5.95135,-46.86655 14.1875,-66.53125 4.11817,-9.83237 25.17,-37.9649 18.9375,-63.125 -3.88104,-5.85126 -7.70833,-7.52142 -12.03125,-8.875 z M 124.03125,353.65625 c 0.047,-0.0808 0.0777,-0.16916 0.125,-0.25 l -0.1875,0.28125 c 0.0171,-0.0151 0.0454,-0.0161 0.0625,-0.0312 z"
       id="path3817-7"
       inkscape:connector-curvature="0"
       sodipodi:nodetypes="cssscassssccsssaassscassssccsssscassssccssscsssssccccccc" />
  </g>
  <g
     inkscape:groupmode="layer"
     id="layer2"
     inkscape:label="Layer"
     style="display:inline"
     transform="translate(-134.74657,-184.3582)">
    <path
       style="fill:#42ff23;fill-opacity:1;fill-rule:nonzero;stroke:#005400;stroke-width:5;stroke-miterlimit:4;stroke-opacity:1;stroke-dasharray:none;display:inline"
       d="m 651.86405,691.66492 c -3.34023,3.01647 -7.92458,4.41402 -14.90428,3.51865 -23.10503,-11.74865 -30.60687,-46.07537 -35.34802,-55.62291 -9.48251,-19.09495 -22.12742,-41.29058 -41.0516,-54.25175 -25.80095,-17.67103 -73.63567,-18.72454 -92.75492,-27.89485 -7.62296,-3.65626 -12.3187,-11.16726 -19.48499,-15.50457 -5.61856,-3.4005 -12.79048,-7.62925 -18.21898,-8.11678 -5.42851,-0.48749 -12.72283,8.36932 -19.24899,12.26332 -4.87504,2.90897 -11.40105,7.8931 -14.09484,4.47263 -4.3439,-5.51458 1.00123,-18.08701 12.34979,-20.38754 9.74615,-1.97574 14.2771,-0.68991 25.44854,-8.72511 6.64183,-4.77719 26.4977,-27.51699 43.45974,-33.46036 25.32074,-8.87218 43.21976,-6.37587 77.08098,0.20868 67.72253,13.16925 172.77553,112.82485 96.22675,203.96551"
       id="path3817-7-1-1"
       inkscape:connector-curvature="0"
       sodipodi:nodetypes="ccsasassascasc"
       inkscape:transform-center-x="16.083096"
       inkscape:transform-center-y="92.045915" />
    <path
       style="fill:#42ff23;fill-opacity:1;fill-rule:nonzero;stroke:#005400;stroke-width:5;stroke-miterlimit:4;stroke-opacity:1;stroke-dasharray:none;display:inline"
       d="m 166.01463,213.78574 c 3.84757,-2.41305 7.58825,-4.24836 14.57288,-3.39222 23.17068,11.61871 30.81833,45.9496 35.61306,55.47039 9.58961,19.04136 22.35895,41.16562 41.35563,54.0203 25.89981,17.5258 73.73976,18.3106 92.9102,27.37339 7.64333,3.61338 12.38119,11.09789 19.57176,15.39488 5.63755,3.36888 12.83307,7.55728 18.26427,8.0143 5.43113,0.45702 12.67567,-8.44063 19.17981,-12.37122 4.85864,-2.9363 11.35656,-7.95704 14.06945,-4.55174 4.37484,5.49007 -0.89958,18.09234 -12.23501,20.45657 -9.73498,2.03048 -14.27307,0.77011 -25.39916,8.86796 -6.61486,4.81442 -26.34273,27.66539 -43.27112,33.70394 -25.27053,9.01424 -43.18321,6.61856 -77.08094,0.22427 C 195.77006,404.20794 90.580834,304.81587 166.61648,213.24668"
       id="path3817-7-1-7"
       inkscape:connector-curvature="0"
       sodipodi:nodetypes="ccsasassascasc"
       inkscape:transform-center-x="-15.586708"
       inkscape:transform-center-y="-91.916918" />
    <path
       style="fill:#42ff23;fill-opacity:1;fill-rule:nonzero;stroke:#005400;stroke-width:5;stroke-miterlimit:4;stroke-opacity:1;stroke-dasharray:none;display:inline"
       d="m 666.25803,218.5995 c 2.07831,4.03822 3.59002,7.92099 2.14504,14.80792 -13.54051,22.10269 -48.3533,26.86412 -58.24614,30.83477 -19.78555,7.94145 -42.91237,18.78992 -57.33067,36.62891 -19.65766,24.32138 -24.49385,71.92271 -35.14864,90.25617 -4.24811,7.30964 -12.10722,11.39617 -16.99811,18.1967 -3.83453,5.33179 -8.61765,12.14648 -9.53329,17.51942 -0.91568,5.37287 7.33607,13.34537 10.70133,20.15921 2.51399,5.09002 6.96599,11.99002 3.34304,14.40458 -5.84109,3.89383 -17.95101,-2.42959 -19.34612,-13.92458 -1.19818,-9.87204 0.44223,-14.28699 -6.6836,-26.05933 -4.23652,-6.99905 -25.33345,-28.59247 -29.91566,-45.97171 -6.84027,-25.94354 -2.93518,-43.58876 6.30871,-76.82267 18.48798,-66.46774 126.44866,-162.83537 211.24477,-79.31318"
       id="path3817-7-1-4"
       inkscape:connector-curvature="0"
       sodipodi:nodetypes="ccsasassascasc"
       inkscape:transform-center-x="-93.426952"
       inkscape:transform-center-y="22.881144" />
    <path
       style="fill:#42ff23;fill-opacity:1;fill-rule:nonzero;stroke:#005400;stroke-width:5;stroke-miterlimit:4;stroke-opacity:1;stroke-dasharray:none;display:inline"
       d="m 138.94966,656.12213 c -2.06619,-3.24739 -2.4471,-8.34519 -0.0533,-14.96236 16.49822,-19.99208 51.63476,-19.83866 61.98565,-22.38694 20.70166,-5.09666 45.11825,-12.60456 61.88941,-28.25211 22.86553,-21.33357 34.31058,-67.79093 47.42437,-84.45434 5.22851,-6.64376 13.58182,-9.59117 19.37564,-15.64097 4.54242,-4.74321 10.23147,-10.82208 11.88947,-16.01417 1.65793,-5.19204 -5.39784,-14.2401 -7.77721,-21.45758 -1.77758,-5.39154 -5.22091,-12.84631 -1.29594,-14.73053 6.32819,-3.03877 17.4349,4.91591 17.20891,16.49308 -0.19408,9.94257 -2.43577,14.08476 2.97388,26.73788 3.21619,7.52269 21.08629,31.85405 23.19325,49.7033 3.14522,26.64515 -3.18895,43.57092 -16.98936,75.18565 -27.60088,63.22939 -147.7419,144.05953 -220.02546,49.50042"
       id="path3817-7-1-0"
       inkscape:connector-curvature="0"
       sodipodi:nodetypes="ccsasassascasc"
       inkscape:transform-center-x="93.882623"
       inkscape:transform-center-y="-33.858339" />
    <path
       style="fill:#4da91c;fill-opacity:1;fill-rule:nonzero;stroke:none;display:inline"
       d="m 168.14502,214.80676 c 3.84757,-2.41305 -7.8022,18.39094 -13.82214,47.42492 -4.32779,20.87281 6.92219,43.53594 18.46897,61.59463 13.08593,20.46587 33.32486,36.52838 54.57946,48.28998 28.24945,15.63232 60.67799,25.50636 92.9102,27.37339 13.00977,0.75358 26.33962,-2.02779 38.52589,-6.64481 10.40746,-3.94308 15.60342,-15.742 28.40253,-17.55174 5.39665,-0.76306 8.26774,-0.94709 14.77188,-4.87772 4.85864,-2.9363 14.06887,-11.95505 17.5958,-6.75571 2.40287,3.54226 2.62677,7.07249 -8.70866,9.43672 -9.73498,2.03048 -14.27307,0.77011 -25.39916,8.86796 -6.61486,4.81442 -26.34273,27.66539 -43.27112,33.70394 -25.27053,9.01424 -43.18321,6.61856 -77.08094,0.22427 C 197.32232,403.10397 92.101843,306.35252 168.13749,214.78333"
       id="path3817-7-1-7-2"
       inkscape:connector-curvature="0"
       sodipodi:nodetypes="csaaaassascasc"
       inkscape:transform-center-x="-15.586708"
       inkscape:transform-center-y="-91.916918" />
    <path
       style="fill:#4ea81d;fill-opacity:1;fill-rule:nonzero;stroke:none;display:inline"
       d="m 665.14287,220.89725 c 2.0523,4.05151 -15.73497,-10.03236 -44.09939,-18.67365 -20.39146,-6.21229 -43.98567,2.92514 -63.02164,12.77783 -21.57345,11.16603 -39.41384,29.85664 -53.0638,49.95071 -18.14214,26.707 -30.93088,58.10056 -35.72806,90.02842 -1.93626,12.88692 -0.38148,26.4148 3.10558,38.97118 2.97804,10.72354 14.25425,16.97331 14.88983,29.88411 0.26801,5.44374 0.18955,8.31965 3.51098,15.15499 2.48122,5.10605 10.62293,15.09999 5.12376,18.13832 -3.74653,2.07 -7.28246,1.97119 -8.60366,-9.53254 -1.13469,-9.87954 0.53407,-14.28386 -6.51594,-26.10174 -4.19145,-7.02615 -25.14914,-28.75473 -29.61957,-46.16306 -6.67333,-25.98697 -2.65491,-43.60673 6.80249,-76.78051 18.91481,-66.34755 122.86739,-161.77322 207.12488,-77.70769"
       id="path3817-7-1-7-2-3"
       inkscape:connector-curvature="0"
       sodipodi:nodetypes="csaaaassascasc"
       inkscape:transform-center-x="-93.79172"
       inkscape:transform-center-y="23.118227" />
    <path
       style="fill:#4da91c;fill-opacity:1;fill-rule:nonzero;stroke:none;display:inline"
       d="m 141.09597,655.12591 c -1.51706,-4.28078 15.71353,11.91794 42.7392,24.11733 19.42902,8.77025 43.9984,2.7267 64.13855,-4.60942 22.82479,-8.314 42.90996,-24.56837 59.0187,-42.75083 21.4101,-24.16627 38.11042,-53.66552 46.95323,-84.71719 3.56919,-12.53327 3.75801,-26.14889 1.90618,-39.04823 -1.58152,-11.01644 -11.96542,-18.65759 -10.94388,-31.5436 0.43072,-5.43329 0.87647,-8.27552 -1.5431,-15.47964 -1.80753,-5.38155 -8.60363,-16.33505 -2.76091,-18.64483 3.98058,-1.57362 7.47483,-1.0232 7.31328,10.55503 -0.13867,9.9435 -2.35724,14.09811 3.12278,26.7209 3.25802,7.50467 21.26335,31.73614 23.4697,49.57335 3.29355,26.62723 -2.94623,43.58802 -16.57036,75.27912 -27.24831,63.38214 -143.81389,145.00257 -216.62296,50.84754"
       id="path3817-7-1-7-2-1"
       inkscape:connector-curvature="0"
       sodipodi:nodetypes="csaaaassascasc"
       inkscape:transform-center-x="94.412288"
       inkscape:transform-center-y="-32.728261" />
    <path
       style="fill:#4da91c;fill-opacity:1;fill-rule:nonzero;stroke:none;display:inline"
       d="m 648.86692,690.9159 c -3.87533,2.3682 8.90504,-17.4136 15.26169,-46.37572 4.56985,-20.82116 -6.41623,-43.61339 -17.75255,-61.80493 -12.84741,-20.61642 -32.89848,-36.91285 -54.01509,-48.92045 -28.06603,-15.95926 -60.37774,-26.20917 -92.5861,-28.45032 -13.00015,-0.90458 -26.36138,1.72183 -38.60045,6.19704 -10.45255,3.82197 -15.78515,15.55977 -28.60441,17.22077 -5.40515,0.70034 -8.27818,0.85102 -14.82751,4.70587 -4.89241,2.87969 -14.20673,11.79089 -17.67305,6.55095 -2.36159,-3.56992 -2.54448,-7.10251 8.81763,-9.33497 9.75791,-1.9173 14.28106,-0.60432 25.50042,-8.57245 6.6703,-4.73729 26.66218,-27.35765 43.65954,-33.19925 25.37349,-8.72021 43.25715,-6.1167 77.07834,0.67074 67.64236,13.57492 173.58675,116.05213 94.55021,200.72725"
       id="path3817-7-1-7-2-6"
       inkscape:connector-curvature="0"
       sodipodi:nodetypes="csaaaassascasc"
       inkscape:transform-center-x="16.574814"
       inkscape:transform-center-y="92.217471" />
    <flowRoot
       xml:space="preserve"
       id="flowRoot3049"
       style="font-size:32px;font-style:normal;font-variant:normal;font-weight:normal;font-stretch:normal;line-height:125%;letter-spacing:0px;word-spacing:0px;fill:#000000;fill-opacity:1;stroke:none;font-family:Raleway;-inkscape-font-specification:Raleway"><flowRegion
         id="flowRegion3051"><rect
           id="rect3053"
           width="667.50879"
           height="132.93608"
           x="59.396969"
           y="741.23523" /></flowRegion><flowPara
         id="flowPara3055" /></flowRoot>  </g>
  <g
     inkscape:groupmode="layer"
     id="layer3"
     inkscape:label="Layer#1"
     style="display:none"
     transform="translate(-134.74657,-184.3582)">
    <path
       style="fill:#42ff23;fill-opacity:1;fill-rule:nonzero;stroke:none;display:inline"
       d="m 670.38949,641.72872 c 0.54428,-4.50898 0.61142,-8.67508 -3.13828,-14.62971 -20.38148,-16.01464 -54.67736,-8.37291 -65.33355,-8.65555 -21.31233,-0.56554 -46.7683,-2.6947 -66.49016,-14.40643 -26.88845,-15.96765 -47.9759,-58.91633 -64.34108,-72.40044 -6.52492,-5.37618 -15.31455,-6.47473 -22.26506,-11.15005 -5.44932,-3.66559 -12.30372,-8.3917 -15.03062,-13.11081 -2.72689,-4.71918 2.23747,-15.06354 3.0232,-22.62242 0.58708,-5.64652 2.36176,-13.66406 -1.87474,-14.66814 -6.8306,-1.61957 -15.9858,8.52038 -13.29651,19.78314 2.30954,9.67249 5.38287,13.24147 2.7955,26.75706 -1.5382,8.03551 -13.80945,35.61756 -12.06218,53.50559 2.60837,26.70305 12.40583,41.8891 32.62973,69.83427 40.44795,55.89036 175.06079,109.24536 225.52033,1.44847"
       id="path3817-7-1-1-9"
       inkscape:connector-curvature="0"
       sodipodi:nodetypes="ccsasassascasc"
       inkscape:transform-center-x="-89.601671"
       inkscape:transform-center-y="-47.413971" />
    <path
       style="fill:#42ff23;fill-opacity:1;fill-rule:nonzero;stroke:none;display:inline"
       d="m 706.46882,423.71743 c -2.23802,3.95193 -4.65663,7.34479 -11.20864,9.91173 -25.90844,0.79216 -48.97506,-25.71317 -57.71915,-31.81029 -17.48828,-12.19406 -39.23954,-25.58897 -62.06323,-27.86829 -31.11745,-3.10759 -73.57986,18.94281 -94.75396,20.08213 -8.4422,0.45426 -16.16834,-3.87844 -24.53712,-4.24086 -6.56132,-0.28408 -14.88287,-0.54862 -19.87847,1.63105 -4.99554,2.17958 -7.13972,13.45143 -10.9936,20.00131 -2.87885,4.89295 -6.20902,12.39895 -10.21456,10.69255 -6.45869,-2.75056 -7.80879,-16.34515 1.0402,-23.81352 7.5996,-6.41396 12.19131,-7.46229 18.13068,-19.87558 3.53115,-7.38008 10.02535,-36.86196 22.04845,-50.22159 17.94793,-19.94311 34.84623,-26.35024 67.70882,-36.83804 65.7252,-20.97535 205.73166,15.97812 182.36353,132.68399"
       id="path3817-7-1-4-4"
       inkscape:connector-curvature="0"
       sodipodi:nodetypes="ccsasassascasc"
       inkscape:transform-center-x="-33.320522"
       inkscape:transform-center-y="59.681932" />
    <path
       style="fill:#42ff23;fill-opacity:1;fill-rule:nonzero;stroke:none;display:inline"
       d="m 167.16751,652.57659 c -0.92206,-4.21352 -1.36791,-8.1474 1.57794,-14.1292 17.51697,-17.04943 50.17517,-13.02518 60.07807,-14.28772 19.80569,-2.52518 43.32832,-6.91623 60.62656,-19.8346 23.58412,-17.61268 39.28069,-60.20123 53.28829,-74.48232 5.5849,-5.69394 13.67357,-7.55377 19.71938,-12.62486 4.74013,-3.97569 10.69182,-9.08554 12.79842,-13.80344 2.10653,-4.71783 -3.4707,-14.03755 -4.8983,-21.113 -1.06651,-5.28546 -3.45776,-12.70235 0.39719,-14.04755 6.21538,-2.16969 15.67867,6.56522 14.20922,17.46821 -1.26199,9.36362 -3.79717,13.02604 -0.14287,25.56689 2.17257,7.45593 16.14406,32.39593 16.16186,49.47691 0.0265,25.49822 -7.70494,40.77549 -23.97737,69.09369 -32.54492,56.63629 -153.06112,119.66898 -209.99486,22.43155"
       id="path3817-7-1-0-8"
       inkscape:connector-curvature="0"
       sodipodi:nodetypes="ccsasassascasc"
       inkscape:transform-center-x="86.389139"
       inkscape:transform-center-y="-39.67859" />
    <path
       style="fill:#42ff23;fill-opacity:1;fill-rule:nonzero;stroke:none;display:inline"
       d="m 100.60192,410.69182 c 2.06508,4.04499 4.33474,7.53925 10.76965,10.38705 25.84996,1.91156 50.04097,-23.5717 59.04049,-29.28508 17.99913,-11.42656 40.30916,-23.86853 63.21006,-25.15895 31.22271,-1.75933 72.69208,22.1063 93.79712,24.16001 8.41466,0.81884 16.32091,-3.17579 24.69753,-3.17604 6.56746,-1.3e-4 14.89267,0.0954 19.78936,2.48896 4.89663,2.39353 6.55148,13.74754 10.11857,20.45791 2.66462,5.01284 5.66715,12.6558 9.74272,11.12418 6.57158,-2.46875 8.50817,-15.99226 -0.01,-23.83624 -7.31518,-6.73652 -11.85728,-7.98238 -17.25441,-20.64085 -3.20877,-7.52585 -8.42227,-37.26094 -19.85652,-51.12789 -17.06892,-20.70044 -33.67441,-27.83216 -66.05282,-39.73096 -64.75689,-23.79735 -206.230107,7.06845 -187.92956,124.6755"
       id="path3817-7-1-4-4-1"
       inkscape:connector-curvature="0"
       sodipodi:nodetypes="ccsasassascasc"
       inkscape:transform-center-x="37.889445"
       inkscape:transform-center-y="55.461393" />
  </g>
  <g
     inkscape:groupmode="layer"
     id="layer6"
     inkscape:label="Layer#4"
     style="display:none"
     transform="translate(-134.74657,-184.3582)">
    <path
       style="fill:#42ff23;fill-opacity:1;fill-rule:nonzero;stroke:none;display:inline"
       d="m 210.99555,388.38458 c 3.62476,-2.73635 7.19299,-4.88787 14.22539,-4.6382 24.08757,9.57409 34.71439,43.06545 40.31353,52.13652 11.19831,18.14201 25.83075,39.08073 45.86671,50.24667 27.31668,15.2234 75.04563,11.87344 94.92719,19.24666 7.92686,2.93974 13.29344,9.98706 20.82841,13.64672 5.90747,2.8694 13.43783,6.42068 18.88822,6.40692 5.45029,-0.0138 11.8993,-9.50388 18.03964,-13.98152 4.58692,-3.34497 10.62689,-8.90812 13.62375,-5.74989 4.83266,5.09173 0.6664,18.10242 -10.42247,21.43686 -9.52325,2.86366 -14.15325,1.99994 -24.53838,11.0285 -6.1743,5.36772 -23.85487,29.83716 -40.19849,37.31523 -24.39754,11.16313 -42.45011,10.32383 -76.77352,6.88074 C 257.12894,575.4743 143.3565,485.90192 211.19941,388.10787"
       id="path3817-7-1-0-8-5"
       inkscape:connector-curvature="0"
       sodipodi:nodetypes="ccsasassascasc"
       inkscape:transform-center-x="-90.589555"
       inkscape:transform-center-y="-62.727884" />
    <path
       style="fill:#42ff23;fill-opacity:1;fill-rule:nonzero;stroke:none;display:inline"
       d="m 418.54946,175.3762 c 2.68368,3.66393 4.78348,7.26282 4.43224,14.29092 -9.92098,23.9468 -43.56233,34.08881 -52.71332,39.55633 -18.30181,10.93513 -39.44972,25.26369 -50.90384,45.13626 -15.61636,27.09398 -12.95606,74.86634 -20.61566,94.63932 -3.0539,7.88357 -10.17804,13.14783 -13.94634,20.62897 -2.95443,5.86542 -6.6141,13.34372 -6.67907,18.79373 -0.0649,5.44994 9.33104,12.03533 13.71953,18.2397 3.27837,4.63473 8.75373,10.75443 5.55251,13.70539 -5.16098,4.75861 -18.11014,0.40487 -21.28407,-10.731 -2.72582,-9.56361 -1.79533,-14.18065 -10.67297,-24.69509 -5.27775,-6.25139 -29.48953,-24.28332 -36.73076,-40.73322 -10.80959,-24.55625 -9.70928,-42.59491 -5.7713,-76.86492 7.87623,-68.54002 99.08242,-181.00689 195.88645,-111.75868"
       id="path3817-7-1-4-4-8-1"
       inkscape:connector-curvature="0"
       sodipodi:nodetypes="ccsasassascasc"
       inkscape:transform-center-x="-89.884775"
       inkscape:transform-center-y="9.0668241" />
    <path
       style="fill:#42ff23;fill-opacity:1;fill-rule:nonzero;stroke:none;display:inline"
       d="m 445.19273,571.79003 c -2.3064,-3.91245 -4.0382,-7.70218 -2.99043,-14.66058 12.25116,-22.84255 46.73374,-29.59187 56.38268,-34.12313 19.29778,-9.06261 41.76465,-21.219 55.1366,-39.85522 18.23107,-25.4083 20.33049,-73.20858 29.91679,-92.12269 3.82208,-7.54115 11.43397,-12.07149 15.92676,-19.14142 3.52258,-5.54283 7.90715,-12.6205 8.51329,-18.03711 0.60606,-5.41651 -8.08905,-12.90288 -11.83938,-19.5126 -2.80166,-4.93752 -7.64186,-11.57093 -4.16332,-14.18921 5.60825,-4.2223 18.06077,1.39649 20.11256,12.79262 1.76212,9.78712 0.3775,14.28887 8.1665,25.63334 4.63078,6.74466 26.93087,27.09316 32.50186,44.18116 8.31626,25.50871 5.42912,43.34879 -1.89443,77.05794 C 636.315,547.23141 534.38567,650.0798 444.941,571.556"
       id="path3817-7-1-0-8-7"
       inkscape:connector-curvature="0"
       sodipodi:nodetypes="ccsasassascasc"
       inkscape:transform-center-x="92.508795"
       inkscape:transform-center-y="-17.998605" />
    <path
       style="fill:#42ff23;fill-opacity:1;fill-rule:nonzero;stroke:none;display:inline"
       d="m 665.36525,355.33347 c -3.59574,2.77441 -7.14103,4.96348 -14.17572,4.78796 -24.18723,-9.31953 -35.16667,-42.69694 -40.86116,-51.70845 -11.38903,-18.02288 -26.24154,-38.80613 -46.39412,-49.76011 -27.47571,-14.93448 -75.16671,-11.08128 -95.12489,-18.24442 -7.95744,-2.85596 -13.39806,-9.84633 -20.97102,-13.42653 -5.93741,-2.80693 -13.50483,-6.2786 -18.95477,-6.20735 -5.44984,0.0712 -11.7984,9.62883 -17.89117,14.171 -4.55138,3.39315 -10.53236,9.01971 -13.56238,5.89324 -4.88607,-5.04047 -0.85725,-18.09437 10.19583,-21.54555 9.4925,-2.96396 14.13135,-2.14913 24.42069,-11.2867 6.11758,-5.43228 23.53885,-30.08712 39.8027,-37.73713 24.27847,-11.41982 42.33897,-10.7706 76.69668,-7.69015 68.71544,6.16112 183.42621,94.52854 116.61849,193.0327"
       id="path3817-7-1-4-4-8-11"
       inkscape:connector-curvature="0"
       sodipodi:nodetypes="ccsasassascasc"
       inkscape:transform-center-x="6.7424302"
       inkscape:transform-center-y="89.007944" />
  </g>
  <g
     inkscape:groupmode="layer"
     id="layer4"
     inkscape:label="Layer#2"
     style="display:none"
     transform="translate(-134.74657,-184.3582)">
    <path
       style="fill:#42ff23;fill-opacity:1;fill-rule:nonzero;stroke:none;display:inline"
       d="m 79.91509,503.52831 c 1.803268,-4.16828 3.845809,-7.8 10.086242,-11.05183 25.675728,-3.554 51.440578,20.33684 60.785728,25.46543 18.69031,10.25709 41.74745,21.25288 64.68407,21.08216 31.27136,-0.23275 71.13658,-26.69101 92.06797,-30.0847 8.34544,-1.35305 16.49004,2.12988 24.84967,1.59663 6.55416,-0.41808 14.85636,-1.04363 19.59068,-3.74424 4.73423,-2.70057 8.93703,-16.7644 11.15171,-24.03412 3.07207,-10.08408 12.4829,-20.12083 19.41226,-15.56359 7.38822,4.85905 -0.13455,17.38506 -7.03781,25.578 -2.97076,3.52576 -15.53299,13.74663 -20.11298,26.72312 -2.72294,7.71498 -6.03208,37.72168 -16.55996,52.28875 -15.71591,21.74549 -31.83347,29.92033 -63.38836,43.85697 C 212.3345,643.51417 69.182715,621.72125 79.955944,503.18737"
       id="path3817-7-17"
       inkscape:connector-curvature="0"
       sodipodi:nodetypes="ccsasassascasc"
       inkscape:transform-center-x="46.180115"
       inkscape:transform-center-y="-58.693398" />
    <path
       style="fill:#42ff23;fill-opacity:1;stroke:none;display:inline"
       d="m 372.07329,478.41972 c -14.17737,40.97001 5.23306,9.29199 8.71062,9.71007 13.4258,1.61408 5.86397,7.55102 8.35159,15.74949 1.85833,6.12436 2.88764,15.02514 8.22861,14.05396 9.18102,-1.66947 12.74179,-17.81819 4.73472,-27.59142 -4.34829,-5.30742 -9.0773,-13.9284 -4.73131,-17.98132 7.16007,-6.67727 -1.96271,-1.39418 5.49457,-6.48004"
       id="path3817-1-0-4"
       inkscape:connector-curvature="0"
       sodipodi:nodetypes="cssassc" />
    <path
       style="fill:#42ff23;fill-opacity:1;fill-rule:nonzero;stroke:none;display:inline"
       d="m 629.13785,318.6913 c 0.36499,4.52693 0.26678,8.69247 -3.71616,14.49364 -21.00092,15.19328 -54.96654,6.19683 -65.62557,6.05648 -21.31799,-0.2806 -46.83835,0.83689 -67.00938,11.75692 -27.50082,14.8882 -50.27579,56.9664 -67.16308,69.79056 -6.73305,5.11302 -15.55942,5.86198 -22.6899,10.25784 -5.59052,3.44648 -15.15052,7.06761 -15.53899,12.50417 -0.76747,10.74062 4.94902,13.59585 6.60532,21.27346 1.19716,5.54933 -4.31918,5.90802 -7.51026,5.93721 -5.19696,0.0475 -19.37495,-0.19657 -12.40596,-9.44396 3.02011,-4.00746 6.38186,-13.77258 4.33288,-27.38018 -1.21826,-8.09021 -12.38545,-36.13744 -9.92975,-53.94208 3.66582,-26.57853 14.05804,-41.36383 35.3749,-68.48458 42.63362,-54.24146 179.25742,-102.21339 225.40011,7.50074"
       id="path3817-7-4-0"
       inkscape:connector-curvature="0"
       sodipodi:nodetypes="ccsasassascasc"
       inkscape:transform-center-x="-87.853631"
       inkscape:transform-center-y="49.284526" />
    <path
       style="fill:#42ff23;fill-opacity:1;fill-rule:nonzero;stroke:none;display:inline"
       d="m 585.96944,681.42398 c -4.3689,1.24069 -8.47359,1.95664 -14.94006,-0.81879 -18.99662,-17.63524 -16.7958,-52.70314 -18.73653,-63.18495 -3.88158,-20.96348 -9.9538,-45.77611 -24.59737,-63.43067 -19.96477,-24.06992 -65.67619,-38.20292 -81.54706,-52.26551 -6.32776,-5.6068 -8.78334,-14.1177 -14.48522,-20.25424 -4.47041,-4.81111 -10.20741,-10.84476 -15.29407,-12.8025 -5.0866,-1.95771 -21.44118,-1.12822 -22.61061,11.60735 -0.51909,5.65323 -12.77717,0.10817 -14.04476,-4.65858 -1.79391,-6.74597 2.43181,-16.49536 13.97611,-15.59506 9.91438,0.77317 17.41069,2.62899 30.35757,-2.03406 7.69734,-2.77231 33.02878,-19.19409 50.97047,-20.25726 26.78316,-1.58707 43.31102,5.72271 74.06779,21.34209 61.51343,31.23881 135.20471,155.88616 36.59384,222.53625"
       id="path3817-7-1-9"
       inkscape:connector-curvature="0"
       sodipodi:nodetypes="ccsasassascasc"
       inkscape:transform-center-x="37.919294"
       inkscape:transform-center-y="93.34456" />
    <path
       style="fill:#42ff23;fill-opacity:1;fill-rule:nonzero;stroke:none;display:inline"
       d="m 266.27462,202.68089 c 4.53375,0.26752 8.64524,0.94353 13.83674,5.69392 12.1281,22.90817 -1.50025,55.2944 -3.12021,65.83056 -3.23975,21.07222 -5.67888,46.50034 2.3327,67.99294 10.92285,29.30263 49.42862,57.70299 59.78209,76.20828 4.12796,7.37815 3.64334,16.22294 7.00584,23.89504 2.63633,6.01513 6.1271,13.53073 10.22392,17.12557 4.38484,3.84758 21.18657,5.43651 23.31315,-4.10314 1.23521,-5.54097 13.19593,9.02731 13.58559,9.61529 4.14685,6.2576 -6.47008,15.02163 -19.97889,10.39378 -14.51174,-4.97144 -13.92719,-8.48907 -27.68754,-8.35054 -8.18096,0.0824 -37.50773,7.24439 -54.79846,2.33879 -25.81144,-7.32308 -39.00943,-19.66874 -62.90542,-44.54694 -47.79191,-49.7564 -76.31618,-191.72027 38.74484,-222.17187"
       id="path3817-7-9-4"
       inkscape:connector-curvature="0"
       sodipodi:nodetypes="ccsasasssscasc"
       inkscape:transform-center-x="-54.622688"
       inkscape:transform-center-y="-80.013415" />
  </g>
  <g
     inkscape:groupmode="layer"
     id="layer5"
     inkscape:label="Layer#3"
     style="display:none"
     transform="translate(-134.74657,-184.3582)">
    <path
       style="fill:#42ff23;fill-opacity:1;fill-rule:nonzero;stroke:none;display:inline"
       d="m 246.68302,182.28154 c 4.51843,0.45841 8.59778,1.30715 13.58439,6.27212 11.15163,23.39905 -3.82981,55.182 -5.89245,65.64048 -4.1252,20.91694 -7.63405,46.21965 -0.53558,68.03087 9.6779,29.73702 46.95225,59.73532 56.51645,78.66061 3.81325,7.5456 2.9562,16.36211 5.99233,24.16914 2.3804,6.12091 5.48714,13.84528 9.49292,17.54134 4.00571,3.69597 18.68202,3.4493 26.28111,3.36204 10.54094,-0.12105 22.95365,5.8138 20.70499,13.79724 -2.39747,8.51166 -16.61187,5.12877 -26.50871,1.02612 -4.25902,-1.76553 -17.80007,-10.64901 -31.55399,-11.09066 -8.17718,-0.26256 -37.77977,5.65685 -54.84839,0.0267 -25.47976,-8.40463 -38.14564,-21.29568 -60.97162,-47.15908 -45.65199,-51.72682 -68.16654,-194.76689 48.07589,-220.34111"
       id="path3817-7-17-8"
       inkscape:connector-curvature="0"
       sodipodi:nodetypes="ccsasassascasc"
       inkscape:transform-center-x="-57.404634"
       inkscape:transform-center-y="-78.773939" />
    <path
       style="fill:#42ff23;fill-opacity:1;fill-rule:nonzero;stroke:none;display:inline"
       d="m 587.32435,271.41265 c 0.95285,4.44053 1.39929,8.58324 -1.79223,14.85473 -18.83773,17.80491 -53.68715,13.31962 -64.27329,14.57199 -21.17217,2.50484 -46.32825,6.94442 -64.90105,20.4043 -25.32183,18.35098 -42.40863,63.04231 -57.47723,77.96133 -6.00792,5.94826 -14.66098,7.84308 -21.15656,13.1322 -5.09273,4.14681 -14.09818,8.985 -13.7736,14.42575 0.64129,10.7489 6.68159,12.83341 9.32603,20.22908 1.91137,5.34556 -3.51094,6.42133 -6.6709,6.86686 -5.14628,0.72554 -19.2348,2.33448 -13.53269,-7.74356 2.4711,-4.36743 4.52926,-14.48786 0.72136,-27.7115 -2.26401,-7.86194 -16.99716,-34.21127 -16.88685,-52.18413 0.16466,-26.82964 8.53774,-42.84509 26.13158,-72.51663 35.1876,-59.34302 164.37948,-124.74047 224.45033,-21.98916"
       id="path3817-7-4-0-2"
       inkscape:connector-curvature="0"
       sodipodi:nodetypes="ccsasassascasc"
       inkscape:transform-center-x="-92.363441"
       inkscape:transform-center-y="42.331418" />
    <path
       style="fill:#42ff23;fill-opacity:1;fill-rule:nonzero;stroke:none;display:inline"
       d="m 644.16405,421.42086 c -1.68927,4.4888 -3.61381,8.41811 -9.57455,12.10831 -24.62551,4.76783 -49.61849,-19.55328 -58.64736,-24.62562 -18.0577,-10.14451 -40.31742,-20.902 -62.34673,-19.82731 -30.03435,1.4652 -68.05397,31.06511 -88.12414,35.47814 -8.00204,1.75947 -15.86084,-1.61522 -23.88499,-0.72425 -6.29107,0.6986 -14.25908,1.68517 -18.77874,4.73236 -4.51959,3.04716 -13.70571,17.4072 -4.85104,26.55288 3.93054,4.05968 -7.58184,10.87314 -11.91875,8.89197 -6.13767,-2.80377 -10.9187,-12.62113 -3.31956,-21.80592 6.5262,-7.888 12.41454,-13.03798 16.68046,-26.97192 2.53623,-8.28417 5.40661,-40.2212 15.36925,-56.07291 14.87213,-23.66327 30.26941,-32.95684 60.43539,-48.95969 60.33196,-32.00561 198.05575,-14.48231 188.92502,111.58698"
       id="path3817-7-1-9-4"
       inkscape:connector-curvature="0"
       sodipodi:nodetypes="ccsasassascasc"
       inkscape:transform-center-x="-43.537207"
       inkscape:transform-center-y="61.350755" />
    <path
       style="fill:#42ff23;fill-opacity:1;fill-rule:nonzero;stroke:none;display:inline"
       d="m 452.56466,175.22808 c 3.18039,3.24214 5.77358,6.50353 6.43171,13.50959 -6.39198,25.12006 -38.23572,39.97188 -46.51011,46.6927 -16.5486,13.44167 -35.42832,30.64907 -43.92071,51.95626 -11.57835,29.04987 -2.10901,75.94982 -6.86015,96.61542 -1.89431,8.23946 -8.19174,14.46904 -10.8507,22.41243 -2.08467,6.22786 -4.54349,14.14137 -3.92083,19.55608 0.66642,5.7954 12.05154,18.25342 20.03236,12.61125 4.63554,-3.27715 3.71879,15.54978 3.61281,16.24714 -1.12799,7.4217 -14.88034,6.78874 -21.78475,-5.71062 -7.41702,-13.42735 -4.62211,-15.64184 -14.91303,-24.77768 -6.11829,-5.4315 -32.66106,-19.81328 -42.18182,-35.05759 -14.21245,-22.75663 -15.70489,-40.76704 -16.71154,-75.2479 -2.01323,-68.96168 72.15971,-193.32306 177.87714,-138.64066"
       id="path3817-7-9-4-5"
       inkscape:connector-curvature="0"
       sodipodi:nodetypes="ccsasasssscasc"
       inkscape:transform-center-x="-82.869569"
       inkscape:transform-center-y="-4.5951367" />
  </g>
</svg>
